<?xml version="1.0" encoding="UTF-8"?>
<!-- Generated by jsxcad -->
<!DOCTYPE svg PUBLIC "-//W3C//DTD SVG 1.1 Tiny//EN" "http://www.w3.org/Graphics/SVG/1.1/DTD/svg11-tiny.dtd">
<svg viewBox="-250 -250 500 500" width="500" height="500" xmlns="http://www.w3.org/2000/svg"><path d="M195.776890469327,24.72526393366263L-103.91317073210331,96.55643275597352L-104.40791446461729,99.74157388469413z" style="fill:rgb(84,220,202)"/><path d="M196.31316552970154,27.897212630731783L-104.40791446461729,99.74157388469413L-105.2478415251562,102.29542577948693z" style="fill:rgb(85,234,182)"/><path d="M196.62668618153043,30.355737504260073L-105.2478415251562,102.29542577948693L-106.40526109303741,104.11499955461828z" style="fill:rgb(89,244,159)"/><path d="M196.70303640322692,32.000053576010494L-106.40526109303741,104.11499955461828L-107.8400035473465,105.12222496007121z" style="fill:rgb(93,250,135)"/><path d="M201.95768901745333,56.88088462182982L-105.59584919717935,128.1617674070595L-102.30580031771977,127.6775083502937z" style="fill:rgb(155,4,143)"/><path d="M195.776890469327,24.72526393366263L-104.40791446461729,99.74157388469413L196.31316552970154,27.897212630731783z" style="fill:rgb(84,220,202)"/><path d="M196.31316552970154,27.897212630731783L-105.2478415251562,102.29542577948693L196.62668618153043,30.355737504260073z" style="fill:rgb(85,234,182)"/><path d="M200.72811234392637,54.86165991712063L-109.24485827438797,126.87145481895593L-105.59584919717935,128.1617674070595z" style="fill:rgb(148,8,167)"/><path d="M196.62668618153043,30.355737504260073L-106.40526109303741,104.11499955461828L196.70303640322692,32.000053576010494z" style="fill:rgb(89,244,159)"/><path d="M193.64190369686753,26.629878079572787L-115.1777231444402,100.54781998028007L-117.04747401354398,119.08116277532693z" style="fill:rgb(83,212,212)"/><path d="M199.0682193598331,50.97879447459109L-113.11378713270007,123.81562954150144L-109.24485827438797,126.87145481895593z" style="fill:rgb(140,16,189)"/><path d="M196.70303640322692,32.000053576010494L-107.8400035473465,105.12222496007121L196.53621697843928,32.75707482675045z" style="fill:rgb(93,250,135)"/><path d="M201.95768901745333,56.88088462182982L-102.30580031771977,127.6775083502937L202.71926475540874,57.00417265575852z" style="fill:rgb(155,4,143)"/><path d="M197.0366747603931,45.348734448228264L-117.04747401354398,119.08116277532693L-113.11378713270007,123.81562954150144z" style="fill:rgb(131,29,208)"/><path d="M201.49668119074437,56.1237961104707L202.1212757331167,46.78458063381593L201.02463987525354,40.40635887964224zM201.49668119074437,56.1237961104707L201.02463987525354,40.40635887964224L195.776890469327,24.72526393366263z" style="fill:rgb(247,158,158)"/><path d="M200.72811234392637,54.86165991712063L-105.59584919717935,128.1617674070595L201.95768901745333,56.88088462182982z" style="fill:rgb(148,8,167)"/><path d="M201.49668119074437,56.1237961104707L202.78992207015438,51.81360115745206L202.1212757331167,46.78458063381593zM201.49668119074437,56.1237961104707L195.776890469327,24.72526393366263L196.31316552970154,27.897212630731783zM201.49668119074437,56.1237961104707L202.9958530527165,55.27710553999947L202.78992207015438,51.81360115745206z" style="fill:rgb(247,158,158)"/><path d="M199.0682193598331,50.97879447459109L-109.24485827438797,126.87145481895593L200.72811234392637,54.86165991712063z" style="fill:rgb(140,16,189)"/><path d="M201.29446283023915,55.791725431340694L196.31316552970154,27.897212630731783L196.62668618153043,30.355737504260073zM200.96484543217701,55.25042503004813L196.62668618153043,30.355737504260073L196.70303640322692,32.000053576010494zM201.49668119074437,56.1237961104707L202.71926475540874,57.00417265575852L202.9958530527165,55.27710553999947z" style="fill:rgb(247,158,158)"/><path d="M193.64190369686753,26.629878079572787L-117.04747401354398,119.08116277532693L197.0366747603931,45.348734448228264z" style="fill:rgb(83,212,212)"/><path d="M197.0366747603931,45.348734448228264L-113.11378713270007,123.81562954150144L199.0682193598331,50.97879447459109z" style="fill:rgb(131,29,208)"/><path d="M201.29446283023915,55.791725431340694L201.49668119074437,56.1237961104707L196.31316552970154,27.897212630731783zM200.4721161473188,54.26282353170682L196.70303640322692,32.000053576010494L196.53621697843928,32.75707482675045zM200.96484543217701,55.25042503004813L201.29446283023915,55.791725431340694L196.62668618153043,30.355737504260073zM201.49668119074437,56.1237961104707L201.95768901745333,56.88088462182982L202.71926475540874,57.00417265575852zM199.80324959597976,52.69817905919497L196.53621697843928,32.75707482675045L196.12936382145844,32.585638716480176zM200.4721161473188,54.26282353170682L200.96484543217701,55.25042503004813L196.70303640322692,32.000053576010494zM199.02945598441573,50.871361226176795L196.12936382145844,32.585638716480176L195.49510068734892,31.47989293633096zM199.80324959597976,52.69817905919497L200.4721161473188,54.26282353170682L196.53621697843928,32.75707482675045zM198.05604041320885,48.17372074821934L195.49510068734892,31.47989293633096L194.655570635861,29.47144364397207zM199.02945598441573,50.871361226176795L199.80324959597976,52.69817905919497L196.12936382145844,32.585638716480176zM200.4721161473188,54.26282353170682L200.72811234392637,54.86165991712063L200.96484543217701,55.25042503004813zM197.0366747603931,45.348734448228264L194.655570635861,29.47144364397207L193.64190369686753,26.629878079572787zM198.05604041320885,48.17372074821934L199.02945598441573,50.871361226176795L195.49510068734892,31.47989293633096zM199.02945598441573,50.871361226176795L199.0682193598331,50.97879447459109L199.80324959597976,52.69817905919497zM197.0366747603931,45.348734448228264L198.05604041320885,48.17372074821934L194.655570635861,29.47144364397207z" style="fill:rgb(247,158,158)"/><path d="M197.0366747603931,45.348734448228264L-234.58179719000032,-46.92576743298972L-117.04747401354398,119.08116277532693z" style="fill:rgb(127,37,217)"/><path d="M193.64190369686753,26.629878079572787L130.18751610125824,-151.08254406130155L197.0366747603931,45.348734448228264z" style="fill:rgb(247,158,158)"/><path d="M197.0366747603931,45.348734448228264L130.18751610125824,-151.08254406130155L-234.58179719000032,-46.92576743298972z" style="fill:rgb(127,37,217)"/><path d="M-234.58179719000032,-46.92576743298972L127.51130307904721,-169.37862240486663L-230.1728239303429,-65.61162150159957z" style="fill:rgb(83,212,212)"/><path d="M193.64190369686753,26.629878079572787L127.51130307904721,-169.37862240486663L130.18751610125824,-151.08254406130155z" style="fill:rgb(247,158,158)"/><path d="M-234.58179719000032,-46.92576743298972L130.18751610125824,-151.08254406130155L127.51130307904721,-169.37862240486663z" style="fill:rgb(83,212,212)"/></svg>
