<?xml version="1.0" encoding="UTF-8"?>
<!-- Generated by jsxcad -->
<!DOCTYPE svg PUBLIC "-//W3C//DTD SVG 1.1 Tiny//EN" "http://www.w3.org/Graphics/SVG/1.1/DTD/svg11-tiny.dtd">
<svg viewBox="-250 -250 500 500" width="500" height="500" xmlns="http://www.w3.org/2000/svg"><path d="M67.28255661228786,-51.948924263614565L-30.627643812641903,-25.92342950458044L-31.772538946010403,-13.292276901462307zM67.28255661228786,-51.948924263614565L-31.772538946010403,-13.292276901462307L67.62020711448385,-39.406671944150624z" style="fill:rgb(84,220,202)"/><path d="M67.62020711448385,-39.406671944150624L-31.772538946010403,-13.292276901462307L-34.382890529748536,-3.4872982423455725z" style="fill:rgb(85,234,182)"/><path d="M76.09025386343767,86.06662843894094L98.21685247744445,42.544469293854256L96.71238281965624,16.70034816866847z" style="fill:rgb(247,158,158)"/><path d="M67.62020711448385,-39.406671944150624L-34.382890529748536,-3.4872982423455725L66.7095328655785,-29.818491640275482z" style="fill:rgb(85,234,182)"/><path d="M66.7095328655785,-29.818491640275482L-34.382890529748536,-3.4872982423455725L-38.44556711565713,3.006596395403883z" style="fill:rgb(89,244,159)"/><path d="M76.09025386343767,86.06662843894094L96.71238281965624,16.70034816866847L67.28255661228786,-51.948924263614565zM76.09025386343767,86.06662843894094L97.50778401761056,63.869530844033974L98.21685247744445,42.544469293854256z" style="fill:rgb(247,158,158)"/><path d="M66.7095328655785,-29.818491640275482L-38.44556711565713,3.006596395403883L64.51479502836428,-23.671498651156874z" style="fill:rgb(89,244,159)"/><path d="M64.51479502836428,-23.671498651156874L-38.44556711565713,3.006596395403883L-43.89568978750482,5.7620450709991005z" style="fill:rgb(93,250,135)"/><path d="M76.09025386343767,86.06662843894094L67.28255661228786,-51.948924263614565L67.62020711448385,-39.406671944150624zM76.09025386343767,86.06662843894094L94.37317439309064,79.55339874946415L97.50778401761056,63.869530844033974z" style="fill:rgb(247,158,158)"/><path d="M64.51479502836428,-23.671498651156874L-43.89568978750482,5.7620450709991005L61.040295777223456,-21.392738828884323z" style="fill:rgb(93,250,135)"/><path d="M74.26292058446808,84.6887899211415L67.62020711448385,-39.406671944150624L66.7095328655785,-29.818491640275482zM71.24130488123151,82.41044980074548L66.7095328655785,-29.818491640275482L64.51479502836428,-23.671498651156874z" style="fill:rgb(247,158,158)"/><path d="M80.1835003080995,89.15298829273453L-17.345526471109476,112.8160695440668L88.63410297359775,88.38780974855038z" style="fill:rgb(155,4,143)"/><path d="M76.09025386343767,86.06662843894094L88.63410297359775,88.38780974855038L94.37317439309064,79.55339874946415z" style="fill:rgb(247,158,158)"/><path d="M80.1835003080995,89.15298829273453L-29.984375922041927,114.57821609043127L-17.345526471109476,112.8160695440668z" style="fill:rgb(155,4,143)"/><path d="M74.26292058446808,84.6887899211415L76.09025386343767,86.06662843894094L67.62020711448385,-39.406671944150624zM66.98944133495598,77.9922047866608L64.51479502836428,-23.671498651156874L61.040295777223456,-21.392738828884323zM76.09025386343767,86.06662843894094L80.1835003080995,89.15298829273453L88.63410297359775,88.38780974855038zM71.24130488123151,82.41044980074548L74.26292058446808,84.6887899211415L66.7095328655785,-29.818491640275482zM61.54324499221221,70.66219104112922L61.040295777223456,-21.392738828884323L56.34128149891246,-23.311293374154182z" style="fill:rgb(247,158,158)"/><path d="M69.03764480853806,80.74885910646711L-29.984375922041927,114.57821609043127L80.1835003080995,89.15298829273453z" style="fill:rgb(148,8,167)"/><path d="M66.98944133495598,77.9922047866608L71.24130488123151,82.41044980074548L64.51479502836428,-23.671498651156874z" style="fill:rgb(247,158,158)"/><path d="M69.03764480853806,80.74885910646711L-45.38568184683701,107.46136798069136L-29.984375922041927,114.57821609043127z" style="fill:rgb(148,8,167)"/><path d="M55.104144453697764,61.85822007323735L56.34128149891246,-23.311293374154182L50.53429084806533,-29.612836125802502zM61.54324499221221,70.66219104112922L66.98944133495598,77.9922047866608L61.040295777223456,-21.392738828884323zM47.68529200706313,48.367980566947175L50.53429084806533,-29.612836125802502L43.80478708755287,-40.29144909316002z" style="fill:rgb(247,158,158)"/><path d="M36.40921682625538,-55.10663790563825L-75.9314580370478,-24.932694563756062L-82.57586695413443,63.98883762165243z" style="fill:rgb(83,212,212)"/><path d="M66.98944133495598,77.9922047866608L69.03764480853806,80.74885910646711L71.24130488123151,82.41044980074548zM55.104144453697764,61.85822007323735L61.54324499221221,70.66219104112922L56.34128149891246,-23.311293374154182z" style="fill:rgb(247,158,158)"/><path d="M55.39541514346097,62.38785905507264L-45.38568184683701,107.46136798069136L69.03764480853806,80.74885910646711zM55.39541514346097,62.38785905507264L-63.14277593254602,90.68363156059516L-45.38568184683701,107.46136798069136z" style="fill:rgb(140,16,189)"/><path d="M39.69349210312047,33.83590869564945L43.80478708755287,-40.29144909316002L36.40921682625538,-55.10663790563825zM47.68529200706313,48.367980566947175L55.104144453697764,61.85822007323735L50.53429084806533,-29.612836125802502zM55.104144453697764,61.85822007323735L55.39541514346097,62.38785905507264L61.54324499221221,70.66219104112922zM39.69349210312047,33.83590869564945L47.68529200706313,48.367980566947175L43.80478708755287,-40.29144909316002z" style="fill:rgb(247,158,158)"/><path d="M36.40921682625538,-55.10663790563825L-82.57586695413443,63.98883762165243L39.69349210312047,33.83590869564945z" style="fill:rgb(83,212,212)"/><path d="M39.69349210312047,33.83590869564945L-63.14277593254602,90.68363156059516L55.39541514346097,62.38785905507264zM39.69349210312047,33.83590869564945L-82.57586695413443,63.98883762165243L-63.14277593254602,90.68363156059516z" style="fill:rgb(131,29,208)"/><path d="M36.40921682625538,-55.10663790563825L-5.704853414182505,-147.53978395989736L-6.26710636333905,-59.47155540230285zM36.40921682625538,-55.10663790563825L-6.26710636333905,-59.47155540230285L39.69349210312047,33.83590869564945z" style="fill:rgb(247,158,158)"/><path d="M-137.99039813101862,-23.575548862078573L-5.704853414182505,-147.53978395989736L-125.97908407224843,-112.14697928279536z" style="fill:rgb(83,212,212)"/><path d="M39.69349210312047,33.83590869564945L-137.99039813101862,-23.575548862078573L-82.57586695413443,63.98883762165243z" style="fill:rgb(127,37,217)"/><path d="M-137.99039813101862,-23.575548862078573L-6.26710636333905,-59.47155540230285L-5.704853414182505,-147.53978395989736z" style="fill:rgb(83,212,212)"/><path d="M39.69349210312047,33.83590869564945L-6.26710636333905,-59.47155540230285L-137.99039813101862,-23.575548862078573z" style="fill:rgb(127,37,217)"/></svg>
